#!OML:ASF X:\für Bonn\!DataBase\2005_08_10_Bjorn_Final\c3d\bjorn.ASF
:FULLY-SPECIFIED
:DEGREES
601
root -0.426142 1.24703 23.8507 -469.84 -178.326 368.548
lowerback 23.5423 1.07777 0.511904
upperback 8.53652 -0.042539 -3.73636
thorax -3.73354 -0.632904 -4.28113
lowerneck -20.2165 -7.49518 -4.3949
upperneck 1.58102 -10.2054 8.38324
head 4.31535 -4.83908 2.30466
rclavicle 0 -4.09496e-014
rhumerus -213.626 -191.107 118.327
rradius 70.5997
rwrist -7.37726
rhand -24.3371 14.2291
rfingers 7.12502
rthumb 2.1518 -15.7398
lclavicle 0 -4.09496e-014
lhumerus -384.18 -37.7944 -293.936
lradius 44.8112
lwrist -23.7985
lhand -27.7539 -17.6905
lfingers 7.12502
lthumb -1.14818 12.2862
rfemur -26.3145 -15.5892 -12.0975
rtibia 109.774
rfoot 36.6891 13.36
rtoes 0.438718
lfemur -38.2032 -2.76173 -0.109443
ltibia 120.154
lfoot 30.8736 -9.23034
ltoes 7.31612
602
root -0.425931 1.24735 23.8516 -469.858 -178.334 368.519
lowerback 23.5648 1.09016 0.53698
upperback 8.5351 -0.0244432 -3.74853
thorax -3.74438 -0.624835 -4.3139
lowerneck -20.1219 -7.46725 -4.3735
upperneck 1.48298 -10.1684 8.35191
head 4.26542 -4.82723 2.30057
rclavicle -3.18055e-014 -2.66371e-014
rhumerus -213.874 -191.268 117.949
rradius 70.1746
rwrist -7.30761
rhand -24.1363 14.1349
rfingers 7.12502
rthumb 2.34569 -15.8319
lclavicle -3.18055e-014 -2.66371e-014
lhumerus -384.483 -37.8578 -293.638
lradius 44.6428
lwrist -23.7799
lhand -27.7292 -17.765
lfingers 7.12502
lthumb -1.1244 12.2118
rfemur -26.3102 -15.5336 -12.0481
rtibia 109.755
rfoot 36.6697 13.3465
rtoes 0.318108
lfemur -38.1552 -2.79768 -0.113224
ltibia 120.139
lfoot 30.8836 -9.1066
ltoes 7.46955
603
root -0.42524 1.24816 23.8527 -469.876 -178.341 368.518
lowerback 23.593 1.09015 0.542387
upperback 8.5205 -0.023083 -3.74888
thorax -3.77413 -0.623905 -4.31816
lowerneck -20.0394 -7.44497 -4.4019
upperneck 1.42297 -10.125 8.32221
head 4.23124 -4.81001 2.30422
rclavicle 3.18055e-014 -2.14687e-014
rhumerus -214.15 -191.472 117.591
rradius 69.7405
rwrist -7.24534
rhand -23.9067 14.0761
rfingers 7.12502
rthumb 2.56744 -15.8882
lclavicle 3.18055e-014 -2.14687e-014
lhumerus -384.814 -37.9138 -293.309
lradius 44.4624
lwrist -23.7593
lhand -27.7224 -17.911
lfingers 7.12502
lthumb -1.11778 12.0658
rfemur -26.2878 -15.4968 -12.0171
rtibia 109.745
rfoot 36.6681 13.2907
rtoes 0.304572
lfemur -38.1192 -2.83847 -0.131561
ltibia 120.119
lfoot 30.8494 -9.13251
ltoes 7.25669
604
root -0.424373 1.24865 23.8538 -469.881 -178.345 368.507
lowerback 23.5972 1.09134 0.553695
upperback 8.52249 -0.021064 -3.7606
thorax -3.77362 -0.623262 -4.33806
lowerneck -19.9796 -7.42098 -4.39444
upperneck 1.3431 -10.089 8.28763
head 4.1927 -4.7974 2.29976
rclavicle 1.59028e-015 -4.9895e-014
rhumerus -214.365 -191.625 117.229
rradius 69.2732
rwrist -7.12495
rhand -23.6903 14.0026
rfingers 7.12502
rthumb 2.77644 -15.9591
lclavicle 1.59028e-015 -4.9895e-014
lhumerus -385.102 -37.9803 -293.036
lradius 44.2707
lwrist -23.6616
lhand -27.6958 -18.0232
lfingers 7.12502
lthumb -1.09208 11.9538
rfemur -26.2791 -15.4663 -11.9723
rtibia 109.73
rfoot 36.6254 13.3078
rtoes 0.105277
lfemur -38.093 -2.8857 -0.142302
ltibia 120.102
lfoot 30.8432 -9.03889
ltoes 7.36471
605
root -0.424141 1.24948 23.8548 -469.896 -178.355 368.484
lowerback 23.6224 1.09025 0.563022
upperback 8.50929 -0.0209503 -3.76541
thorax -3.8004 -0.623087 -4.34911
lowerneck -19.9221 -7.38529 -4.38249
upperneck 1.29943 -10.0384 8.25383
head 4.16487 -4.77592 2.29567
rclavicle -1.11319e-014 6.10269e-014
rhumerus -214.617 -191.801 116.861
rradius 68.8212
rwrist -6.98836
rhand -23.5018 13.9073
rfingers 7.12502
rthumb 2.95854 -16.0519
lclavicle -1.11319e-014 6.10269e-014
lhumerus -385.42 -37.968 -292.732
lradius 44.0513
lwrist -23.614
lhand -27.5981 -18.2376
lfingers 7.12502
lthumb -0.997792 11.7398
rfemur -26.2649 -15.4237 -11.9361
rtibia 109.717
rfoot 36.6174 13.2867
rtoes 0.10973
lfemur -38.0533 -2.90605 -0.153253
ltibia 120.085
lfoot 30.8236 -9.01969
ltoes 7.264
606
root -0.423257 1.25021 23.8559 -469.897 -178.358 368.473
lowerback 23.6184 1.0952 0.557163
upperback 8.51214 -0.0159392 -3.76181
thorax -3.79497 -0.620925 -4.34304
lowerneck -19.892 -7.36457 -4.38312
upperneck 1.23971 -10.002 8.2024
head 4.13631 -4.76237 2.2861
rclavicle 5.725e-014 -7.63333e-014
rhumerus -214.818 -191.951 116.531
rradius 68.3538
rwrist -6.90818
rhand -23.231 13.8293
rfingers 7.12502
rthumb 3.22001 -16.1261
lclavicle 5.725e-014 -7.63333e-014
lhumerus -385.662 -37.9729 -292.442
lradius 43.7894
lwrist -23.5408
lhand -27.5271 -18.4236
lfingers 7.12502
lthumb -0.929174 11.5541
rfemur -26.2594 -15.3979 -11.901
rtibia 109.702
rfoot 36.6044 13.3148
rtoes -0.00834733
lfemur -38.0345 -2.95127 -0.162222
ltibia 120.07
lfoot 30.8126 -8.98878
ltoes 7.23261
